<?xml version="1.0" encoding="utf-8"?>
<!-- Generator: Adobe Illustrator 18.1.1, SVG Export Plug-In . SVG Version: 6.00 Build 0)  -->
<svg version="1.1" id="Layer_1" xmlns="http://www.w3.org/2000/svg" xmlns:xlink="http://www.w3.org/1999/xlink" x="0px" y="0px"
	 viewBox="0 0 800 400" enable-background="new 0 0 800 400" xml:space="preserve">
<g>
	<g>
		<path fill="#FFFFFF" d="M348.8,83c18.9,0,37-3.3,53.7-9.5v319.4c-16.7-6.1-34.8-9.5-53.7-9.5c-18.9,0-37,3.3-53.7,9.5V73.5
			C311.9,79.6,329.9,83,348.8,83z"/>
		<rect x="388.3" y="62.5" fill="#4CAF50" width="17.1" height="337.5"/>
		<rect x="292.2" y="62.5" fill="#4CAF50" width="17.1" height="337.5"/>
	</g>
	<g>
		<rect x="423.1" y="3" fill="#2196F3" width="106.1" height="397"/>
		<g>
			<rect x="423.1" y="344.8" fill="#64B5F6" width="106.1" height="18.6"/>
			<rect x="423.1" y="39.7" fill="#64B5F6" width="106.1" height="18.6"/>
		</g>
		
			<rect x="450.1" y="175.5" transform="matrix(0.7071 0.7071 -0.7071 0.7071 281.9625 -277.6685)" fill="#64B5F6" width="52.1" height="52.1"/>
	</g>
	<g>
		
			<rect x="190" y="102.9" transform="matrix(-0.975 -0.2223 0.2223 -0.975 389.4576 542.4877)" fill="#F44336" width="70.6" height="292.9"/>
		
			<rect x="208.2" y="120.8" transform="matrix(-0.975 -0.2223 0.2223 -0.975 389.4576 542.4877)" fill="#EF9A9A" width="34.1" height="257.1"/>
	</g>
	<g>
		
			<rect x="563.4" y="151.4" transform="matrix(0.9842 -0.1771 0.1771 0.9842 -39.1829 109.2548)" fill="#F44336" width="57.8" height="245.4"/>
		
			<rect x="551.4" y="190.9" transform="matrix(-0.9842 0.1771 -0.1771 -0.9842 1187.9865 307.9959)" fill="#EF9A9A" width="57.8" height="32.3"/>
		
			<rect x="559.2" y="234.6" transform="matrix(-0.9842 0.1771 -0.1771 -0.9842 1211.3484 393.3658)" fill="#EF9A9A" width="57.8" height="32.3"/>
	</g>
</g>
</svg>
