<?xml version="1.0" encoding="utf-8"?>
<!-- Generator: Adobe Illustrator 18.1.1, SVG Export Plug-In . SVG Version: 6.00 Build 0)  -->
<svg version="1.1" id="Layer_1" xmlns="http://www.w3.org/2000/svg" xmlns:xlink="http://www.w3.org/1999/xlink" x="0px" y="0px"
	 viewBox="-200 0 1200 400" enable-background="new -200 0 1200 400" xml:space="preserve">
<g>
	<g>
		<rect x="223" y="0.7" fill="#2196F3" width="20.2" height="399.5"/>
		<rect x="370.4" y="0.7" fill="#2196F3" width="20.2" height="399.5"/>
		<path fill="#FFFFFF" d="M306.8,25c-22.3,0-43.8-4-63.6-11.2v378.1c19.8-7.3,41.2-11.2,63.6-11.2s43.8,4,63.6,11.2V13.8
			C350.6,21,329.2,25,306.8,25z"/>
	</g>
	<g>
		<path fill="#FFFFFF" d="M787.3,94.3c-18.2,0-35.7-3.2-51.8-9.1v308.2c16.2-5.9,33.6-9.1,51.8-9.1c18.2,0,35.7,3.2,51.8,9.1V85.2
			C823,91.1,805.5,94.3,787.3,94.3z"/>
		<rect x="732.7" y="74.5" fill="#4CAF50" width="16.5" height="325.7"/>
		<rect x="825.4" y="74.5" fill="#4CAF50" width="16.5" height="325.7"/>
	</g>
	<g>
		<rect x="408.4" y="17.2" fill="#F44336" width="102.4" height="383.1"/>
		<g>
			<rect x="408.4" y="347" fill="#EF9A9A" width="102.4" height="17.9"/>
			<rect x="408.4" y="52.6" fill="#EF9A9A" width="102.4" height="17.9"/>
		</g>
		
			<rect x="434.5" y="183.6" transform="matrix(-0.7071 0.7071 -0.7071 -0.7071 932.2372 31.2878)" fill="#EF9A9A" width="50.2" height="50.2"/>
	</g>
	<g>
		<rect x="19.1" y="17.2" fill="#FFC107" width="102.4" height="383.1"/>
		<g>
			<rect x="19.1" y="347" fill="#FFE082" width="102.4" height="17.9"/>
			<rect x="19.1" y="52.6" fill="#FFE082" width="102.4" height="17.9"/>
		</g>
		
			<rect x="45.2" y="183.6" transform="matrix(-0.7071 0.7071 -0.7071 -0.7071 267.6154 306.5832)" fill="#FFE082" width="50.2" height="50.2"/>
	</g>
	<g>
		<rect x="613.2" y="17.2" fill="#2196F3" width="102.4" height="383.1"/>
		<g>
			<rect x="613.2" y="347" fill="#64B5F6" width="102.4" height="17.9"/>
			<rect x="613.2" y="52.6" fill="#64B5F6" width="102.4" height="17.9"/>
		</g>
		
			<rect x="639.3" y="183.6" transform="matrix(-0.7071 0.7071 -0.7071 -0.7071 1281.8425 -113.5234)" fill="#64B5F6" width="50.2" height="50.2"/>
	</g>
	<g>
		<rect x="527.1" y="117.6" fill="#4CAF50" width="68.1" height="282.7"/>
		<rect x="527.1" y="312.9" fill="#388E3C" width="68.1" height="68.1"/>
		<rect x="542.8" y="328.7" fill="#4CAF50" width="36.6" height="36.6"/>
	</g>
	<g>
		<rect x="-74" y="74.5" fill="#2196F3" width="78.5" height="325.8"/>
		<rect x="-74" y="299.6" fill="#64B5F6" width="78.5" height="78.5"/>
		<rect x="-55.8" y="317.8" fill="#2196F3" width="42.1" height="42.1"/>
	</g>
	<g>
		<rect x="138.4" y="117.6" fill="#388E3C" width="68.1" height="282.7"/>
		<rect x="156" y="134.9" fill="#4CAF50" width="32.9" height="248.1"/>
	</g>
	<g>
		
			<rect x="872.5" y="113.5" transform="matrix(0.975 -0.2223 0.2223 0.975 -33.9691 207.9139)" fill="#F44336" width="68.1" height="282.7"/>
		
			<rect x="890.1" y="130.8" transform="matrix(0.975 -0.2223 0.2223 0.975 -33.9691 207.9139)" fill="#EF9A9A" width="32.9" height="248.1"/>
	</g>
	<g>
		
			<rect x="-151.2" y="160.3" transform="matrix(-0.9842 -0.1771 0.1771 -0.9842 -294.1376 531.2174)" fill="#F44336" width="55.7" height="236.8"/>
		
			<rect x="-139.6" y="198.4" transform="matrix(0.9842 0.1771 -0.1771 0.9842 36.1454 23.1725)" fill="#EF9A9A" width="55.7" height="31.2"/>
		
			<rect x="-147.2" y="240.6" transform="matrix(0.9842 0.1771 -0.1771 0.9842 43.5006 25.1852)" fill="#EF9A9A" width="55.7" height="31.2"/>
	</g>
</g>
</svg>
