<?xml version="1.0" encoding="utf-8"?>
<!-- Generator: Adobe Illustrator 18.1.1, SVG Export Plug-In . SVG Version: 6.00 Build 0)  -->
<svg version="1.1" id="Layer_1" xmlns="http://www.w3.org/2000/svg" xmlns:xlink="http://www.w3.org/1999/xlink" x="0px" y="0px"
	 viewBox="0 0 800 400" enable-background="new 0 0 800 400" xml:space="preserve">
<g>
	<g>
		<rect x="299" y="1.7" fill="#2196F3" width="20.2" height="398.4"/>
		<rect x="446" y="1.7" fill="#2196F3" width="20.2" height="398.4"/>
		<path fill="#FFFFFF" d="M382.6,25.9c-22.3,0-43.6-4-63.4-11.2v377c19.8-7.2,41.1-11.2,63.4-11.2s43.6,4,63.4,11.2v-377
			C426.2,21.9,404.8,25.9,382.6,25.9z"/>
	</g>
	<g>
		<rect x="483.9" y="18.1" fill="#F44336" width="102.1" height="382"/>
		<g>
			<rect x="483.9" y="346.9" fill="#EF9A9A" width="102.1" height="17.9"/>
			<rect x="483.9" y="53.4" fill="#EF9A9A" width="102.1" height="17.9"/>
		</g>
		
			<rect x="509.9" y="184" transform="matrix(-0.7071 0.7071 -0.7071 -0.7071 1061.0356 -21.3235)" fill="#EF9A9A" width="50.1" height="50.1"/>
	</g>
	<g>
		<rect x="214.6" y="118.2" fill="#388E3C" width="67.9" height="281.9"/>
		<rect x="232.2" y="135.5" fill="#4CAF50" width="32.8" height="247.4"/>
	</g>
</g>
</svg>
