<?xml version="1.0" encoding="utf-8"?>
<!-- Generator: Adobe Illustrator 18.1.1, SVG Export Plug-In . SVG Version: 6.00 Build 0)  -->
<svg version="1.1" id="Layer_1" xmlns="http://www.w3.org/2000/svg" xmlns:xlink="http://www.w3.org/1999/xlink" x="0px" y="0px"
	 viewBox="0 0 800 400" enable-background="new 0 0 800 400" xml:space="preserve">
<g>
	<path fill="#FFFFFF" fill-opacity=".2" d="M277.3,33.2c0-4.4-0.1-8.1,0-11.8c0.3-9.5,6.9-16.2,15.9-16.2c8.9,0.1,15.5,6.9,15.7,16.4
		c0.1,3.7,0,7.4,0,11.4c60.8,0,120.9,0,181.8,0c0-3.8-0.1-7.5,0-11.1c0.2-9.9,6.8-16.7,15.9-16.7c9.1,0,15.5,7,15.7,16.9
		c0.1,3.6,0,7.1,0,11.1c8.5,0,16.3,0.3,24-0.1c16.9-0.9,27.1,13.9,27.4,25.8c0.4,16.8,0.3,33.5,0.3,50.3c0,86.5,0,173,0,259.5
		c0,16.3-8.9,27.8-24,30.8c-2.1,0.4-4.4,0.5-6.5,0.5c-95.6,0-191.1,0-286.7,0c-19,0-31.2-12-31.3-31c-0.1-83.4,0-166.7,0-250.1
		c0-17.9-0.3-35.7,0.1-53.6c0.1-5.7,1-11.7,3.2-16.8c4.3-10,12.4-15.4,23.7-15.3C260.4,33.2,268.4,33.2,277.3,33.2z M254.1,371.4
		c97.4,0,194.3,0,291.2,0c0-79.1,0-157.8,0-236.5c-97.2,0-194.1,0-291.2,0C254.1,213.8,254.1,292.4,254.1,371.4z M277.3,69.3
		c-10.5,7.8-13.8,20.4-9.2,31.8c4.5,11,16.4,18.1,27.9,16.6c12.5-1.7,22.4-11.3,23.8-23.1c1.3-10.5-3.5-21.4-11-24.4
		c0,3.6,0.1,7,0,10.4c-0.4,8.9-7.2,15.3-15.8,15.2c-8.6,0-15.3-6.5-15.6-15.4C277.2,77,277.3,73.6,277.3,69.3z M522.3,69.7
		c0,3.4,0.1,6.4,0,9.5c-0.2,9.8-6.8,16.7-15.9,16.6c-9.1-0.1-15.6-7-15.7-16.8c0-3,0-6,0-9.6c-9.9,7.1-13.5,19.3-9.7,30.3
		c3.8,11,14.8,18.6,26.4,18.2c12.1-0.4,22.3-8.8,25.4-20.7C535.3,86.7,531,74.9,522.3,69.7z"/>
	<path fill="#FFFFFF" fill-opacity=".2" d="M391.7,286.4c9.5,0,18.7-0.1,27.9,0.2c1.1,0,2.5,2.3,3,3.7c2.7,8.6,7.1,15.4,17,16.6
		c13.9,1.7,23-4.6,26.2-18.3c2.1-9.1,1.3-17.9-2.6-26.6c-6.8-15.2-31-13.6-37.4-3.3c-1.7,2.7-3.7,3.2-6.6,3
		c-7.5-0.5-14.9-0.8-22.9-1.3c3.7-28.8,7.3-57.1,10.9-85.5c28.7,0,56.9,0,85.3,0c0,8.5,0,16.7,0,25.5c-20.9,0-41.8,0-63.2,0
		c-1.8,11.1-3.6,21.9-5.5,33.3c1.5-0.6,2.5-0.8,3.3-1.3c31.8-18.1,69.9,3,71.4,39.5c0.4,8.7-0.2,17.2-3.4,25.4
		c-10.2,26.3-29.4,36.6-57.9,34.5c-9.2-0.7-17.8-3.2-25.6-8.4C399.3,315.4,392.1,302.2,391.7,286.4z"/>
	<path fill="#FFFFFF" fill-opacity=".2" d="M337.5,221c-12.5,0-24.4,0-36.4,0c0-7.1,0-13.6,0-20.6c4.9-0.5,9.7-0.8,14.4-1.4
		c16.5-2.1,23.2-8.1,27.4-24.2c0.2-0.6,0.4-1.2,0.7-1.9c8.1,0,16.2,0,24.7,0c0,51.6,0,103,0,154.8c-9.9,0-20,0-30.8,0
		C337.5,292.3,337.5,256.9,337.5,221z"/>
</g>
</svg>
